<?xml version="1.0" encoding="utf-8"?>
<!-- Generator: Adobe Illustrator 21.0.0, SVG Export Plug-In . SVG Version: 6.00 Build 0)  -->
<svg version="1.1" id="Calque_1" xmlns="http://www.w3.org/2000/svg" xmlns:xlink="http://www.w3.org/1999/xlink" x="0px" y="0px"
	 viewBox="0 0 248.5 152.7" style="enable-background:new 0 0 248.5 152.7;" xml:space="preserve">
<style type="text/css">
	.st0{fill:none;}
	.st1{fill:#FFFFFF;}
	.st2{fill:#B6A083;}
	.st3{fill:none;stroke:#000000;stroke-width:1.5;stroke-miterlimit:10;}
	.st4{fill:none;stroke:#000000;stroke-width:2;stroke-linecap:round;stroke-linejoin:round;stroke-miterlimit:10;}
	.st5{fill:none;stroke:#B6A083;stroke-miterlimit:10;}
	.st6{font-family:'DidotLTStd-BoldItalic';}
	.st7{font-size:22.1071px;}
	.st8{font-family:'Roboto';}
	.st9{font-size:9.4px;}
</style>
<g>
	<polygon class="st1" points="178.5,1 23.2,1 23.2,49 61.8,49 61.8,151.7 247.5,151.7 247.5,49 178.5,49 	"/>
	<g>
		<path class="st2" d="M247.5,48h-68V1V0h-1H23.2h-1v1v24.1H23v1h-0.8V49v1h1h37.5v101.7v1h1h185.8h1v-1V49v-1H247.5z M247.5,151.7
			H61.8V49H23.2V1h155.2v48h69V151.7z"/>
		<rect y="25.1" class="st2" width="22.2" height="1"/>
	</g>
	<rect x="22.2" y="25.1" class="st2" width="0.8" height="1"/>
</g>
<rect x="41.2" y="15.9" class="st0" width="123.1" height="19.3"/>
<text transform="matrix(1 0 0 1 41.1572 32.2246)" class="st6 st7">La cueillette</text>
<rect x="78.6" y="65.8" class="st0" width="159.2" height="88.9"/>
<text transform="matrix(1 0 0 1 78.5967 72.8395)"><tspan x="0" y="0" class="st8 st9">Les plantes que nous cueillons pour </tspan><tspan x="0" y="15" class="st8 st9">vous, séchons en atelier et préparons </tspan><tspan x="0" y="30" class="st8 st9">à l’envoi sont minutieusement </tspan><tspan x="0" y="45" class="st8 st9">sélectionnées dans les lieux les plus </tspan><tspan x="0" y="60" class="st8 st9">préservés de la planète. </tspan></text>
</svg>
