<?xml version="1.0" encoding="utf-8"?>
<!-- Generator: Adobe Illustrator 21.0.0, SVG Export Plug-In . SVG Version: 6.00 Build 0)  -->
<svg version="1.1" id="Calque_1" xmlns="http://www.w3.org/2000/svg" xmlns:xlink="http://www.w3.org/1999/xlink" x="0px" y="0px"
	 viewBox="0 0 220.5 135.7" style="enable-background:new 0 0 220.5 135.7;" xml:space="preserve">
<style type="text/css">
	.st0{fill:none;}
	.st1{fill:#FFFFFF;}
	.st2{fill:#B6A083;}
	.st3{fill:none;stroke:#000000;stroke-width:1.5;stroke-miterlimit:10;}
	.st4{fill:none;stroke:#000000;stroke-width:2;stroke-linecap:round;stroke-linejoin:round;stroke-miterlimit:10;}
	.st5{fill:none;stroke:#B6A083;stroke-miterlimit:10;}
	.st6{font-family:'DidotLTStd-BoldItalic';}
	.st7{font-size:22.1071px;}
	.st8{font-family:'Roboto';}
	.st9{font-size:9.4px;}
</style>
<g>
	<rect x="1" y="49" class="st0" width="38.5" height="0"/>
	<polygon class="st1" points="170.7,1 1,1 1,49 39.5,49 39.5,49 39.5,134.7 219.5,134.7 219.5,49 170.7,49 	"/>
	<path class="st2" d="M219.5,48h-47.8V26.1h22.2v-1h-22.2V1V0h-1H1H0v1v48v1h1h37.5v84.7v1h1h180h1v-1V49v-1H219.5z M219.5,134.7
		h-180V49H1v0V1h169.7v48h48.8V134.7z"/>
</g>
<rect x="18.9" y="15.9" class="st0" width="143.1" height="19.3"/>
<text transform="matrix(1 0 0 1 18.9072 32.2255)" class="st6 st7">Les cueilleurs</text>
<rect x="56.3" y="65.5" class="st0" width="164.2" height="63.1"/>
<text transform="matrix(1 0 0 1 56.3467 72.5894)"><tspan x="0" y="0" class="st8 st9">Ce sont ces hommes et ces</tspan><tspan x="0" y="15" class="st8 st9">femmes qui sont loin de nous et qui </tspan><tspan x="0" y="30" class="st8 st9">pourtant, par une simple gorgée, </tspan><tspan x="0" y="45" class="st8 st9">cessent d&apos;être des inconnus. </tspan></text>
</svg>
