<?xml version="1.0" encoding="utf-8"?>
<!-- Generator: Adobe Illustrator 21.0.0, SVG Export Plug-In . SVG Version: 6.00 Build 0)  -->
<svg version="1.1" id="Calque_1" xmlns="http://www.w3.org/2000/svg" xmlns:xlink="http://www.w3.org/1999/xlink" x="0px" y="0px"
	 viewBox="0 0 233.5 182.5" style="enable-background:new 0 0 233.5 182.5;" xml:space="preserve">
<style type="text/css">
	.st0{fill:none;}
	.st1{fill:#FFFFFF;}
	.st2{fill:#B6A083;}
	.st3{fill:none;stroke:#000000;stroke-width:1.5;stroke-miterlimit:10;}
	.st4{fill:none;stroke:#000000;stroke-width:2;stroke-linecap:round;stroke-linejoin:round;stroke-miterlimit:10;}
	.st5{fill:none;stroke:#B6A083;stroke-miterlimit:10;}
	.st6{font-family:'DidotLTStd-BoldItalic';}
	.st7{font-size:22.1071px;}
	.st8{font-family:'Roboto';}
	.st9{font-size:9.4px;}
</style>
<g>
	<rect x="1" y="49" class="st0" width="38.5" height="0"/>
	<rect x="39.5" y="181.5" class="st0" width="193" height="0"/>
	<polygon class="st1" points="170,49 170,1 1,1 1,49 39.5,49 39.5,49 39.5,181.5 232.5,181.5 232.5,49 170,49 	"/>
	<path class="st2" d="M232.5,48H171V26.1h22.2v-1H171V1V0h-1H1H0v1v48v1h1h37.5v131.5v1h1h193h1v-1V49v-1H232.5z M232.5,181.5
		L232.5,181.5l-193,0v0V49H1v0V1h169v48v0h62.5V181.5z"/>
</g>
<rect x="18.9" y="15.9" class="st0" width="143.1" height="19.3"/>
<text transform="matrix(1 0 0 1 18.9072 32.2255)" class="st6 st7">Les tiges</text>
<rect x="56.3" y="65.5" class="st0" width="174.2" height="177.5"/>
<text transform="matrix(1 0 0 1 56.3467 72.5894)"><tspan x="0" y="0" class="st8 st9">Le Bénéfique est le seul à proposer</tspan><tspan x="0" y="15" class="st8 st9">des infusions directement en tiges.</tspan><tspan x="0" y="30" class="st8 st9">Il n’y a pas de transformation.</tspan><tspan x="0" y="45" class="st8 st9">Lorsque la tisane est libérée dans l’eau, </tspan><tspan x="0" y="60" class="st8 st9">elle s’exprime dans une couleur et une </tspan><tspan x="0" y="75" class="st8 st9">saveur qui lui sont propres</tspan><tspan x="108.4" y="75" class="st8 st9"> </tspan><tspan x="110.2" y="75" class="st8 st9">: pourpre, </tspan><tspan x="0" y="90" class="st8 st9">jaune, turquoise… </tspan></text>
</svg>
