<svg id="Calque_1" data-name="Calque 1" xmlns="http://www.w3.org/2000/svg" viewBox="0 0 245 152"><defs><style>.cls-1{fill:#fff;}.cls-2{fill:#b6a083;}.cls-3{font-size:22.11px;font-family:DidotHTF-24BoldItalic, Didot HTF;font-weight:700;font-style:italic;letter-spacing:0.04em;}.cls-4{font-size:9.54px;font-family:Roboto-Light, Roboto;}.cls-5{letter-spacing:-0.01em;}.cls-6{letter-spacing:-0.01em;}.cls-7{letter-spacing:-0.01em;}.cls-8{letter-spacing:-0.01em;}.cls-9{letter-spacing:-0.01em;}.cls-10{fill:none;stroke:#b6a083;stroke-miterlimit:10;}</style></defs><title>Plan de travail 40</title><polygon class="cls-1" points="187 43 187 1 23 1 23 48 61 48 61 152 244 152 244 43 187 43"/><path class="cls-2" d="M245,152H61V48H23V0H188V42h57ZM62,151H244V43H187V1H24V47H62Z"/><text class="cls-3" transform="translate(42.91 32.22)">La cueillette</text><text class="cls-4" transform="translate(80.35 70.78)">La cueillette sau<tspan class="cls-5" x="67.42" y="0">v</tspan><tspan x="71.94" y="0">age est ef</tspan><tspan class="cls-6" x="112.81" y="0">f</tspan><tspan x="115.85" y="0">ectuée</tspan><tspan x="0" y="14.93">dans des espaces où la </tspan><tspan class="cls-7" x="99.77" y="14.93">v</tspan><tspan x="104.3" y="14.93">égétation</tspan><tspan x="0" y="29.85">p</tspan><tspan class="cls-8" x="5.29" y="29.85">r</tspan><tspan x="8.4" y="29.85">ofite d’un climat e</tspan><tspan class="cls-9" x="82.2" y="29.85">x</tspan><tspan x="86.74" y="29.85">ceptionnel.</tspan><tspan x="0" y="44.78">La qualité des plantes qui y</tspan><tspan x="0" y="59.71">poussent est unique.</tspan></text><line class="cls-10" x1="23" y1="25.57" y2="25.57"/></svg>