<svg id="Calque_1" data-name="Calque 1" xmlns="http://www.w3.org/2000/svg" viewBox="0 0 239 154"><defs><style>.cls-1{fill:#fff;}.cls-2{fill:#b6a083;}.cls-3{font-size:26.66px;font-family:DidotHTF-24BoldItalic, Didot HTF;font-weight:700;font-style:italic;letter-spacing:0.04em;}.cls-4{font-size:9.54px;font-family:Roboto-Light, Roboto;}.cls-5{letter-spacing:-0.01em;}.cls-6{letter-spacing:-0.01em;}.cls-7{letter-spacing:-0.02em;}.cls-8{letter-spacing:0.01em;}.cls-9{letter-spacing:-0.01em;}.cls-10{letter-spacing:-0.01em;}.cls-11{fill:none;stroke:#b6a083;stroke-miterlimit:10;}</style></defs><title>Plan de travail 41</title><polygon class="cls-1" points="155 40 155 1 0 1 0 48 36 48 36 154 238 154 238 40 155 40"/><path class="cls-2" d="M239,154H36V48H0V0H156V39h83ZM37,153H238V40H155V1H1V47H37Z"/><text class="cls-3" transform="translate(16.88 33.08)">Les tiges</text><text class="cls-4" transform="translate(57.52 71.78)">P<tspan class="cls-5" x="5.87" y="0">r</tspan><tspan x="8.99" y="0">ésentées de maniè</tspan><tspan class="cls-6" x="87.39" y="0">r</tspan><tspan x="90.51" y="0">e originale</tspan><tspan x="0" y="14.93">sous forme de tige, les plantes ne</tspan><tspan x="0" y="29.85">subissent aucune t</tspan><tspan class="cls-7" x="78.74" y="29.85">r</tspan><tspan x="81.77" y="29.85">ansformation</tspan><tspan x="0" y="44.78" xml:space="preserve">en dehors de leur séchage afin  de</tspan><tspan x="0" y="59.71">p</tspan><tspan class="cls-5" x="5.29" y="59.71">r</tspan><tspan x="8.4" y="59.71">ése</tspan><tspan class="cls-8" x="23.09" y="59.71">r</tspan><tspan class="cls-9" x="26.38" y="59.71">v</tspan><tspan x="30.91" y="59.71">er </tspan><tspan class="cls-10" x="41.36" y="59.71">t</tspan><tspan x="44.33" y="59.71">ous leurs bienfaits. </tspan></text><line class="cls-11" x1="179" y1="20.5" x2="156" y2="20.5"/></svg>