<svg id="Calque_1" data-name="Calque 1" xmlns="http://www.w3.org/2000/svg" viewBox="0 0 162 43"><title>Plan de travail 23 copie</title><path d="M22.18,18.21H21v7.16h1.13a2.6,2.6,0,0,0,2.09-.85,3.7,3.7,0,0,0,.74-2.44v-.55a3.8,3.8,0,0,0-.7-2.47A2.5,2.5,0,0,0,22.18,18.21Z"/><path d="M115.16,18.66a1.93,1.93,0,0,0-1.36-.45H112v3.34h1.78a2,2,0,0,0,1.37-.44,1.53,1.53,0,0,0,.49-1.21A1.64,1.64,0,0,0,115.16,18.66Z"/><path d="M67.73,18.11A2,2,0,0,0,66,19a4.27,4.27,0,0,0-.65,2.48V22A4.31,4.31,0,0,0,66,24.58a2.06,2.06,0,0,0,1.77.9,2,2,0,0,0,1.77-.87A4.41,4.41,0,0,0,70.13,22v-.52A4.34,4.34,0,0,0,69.51,19,2,2,0,0,0,67.73,18.11Z"/><path d="M140.17,18.66a1.93,1.93,0,0,0-1.36-.45H137v3.34h1.78a2,2,0,0,0,1.37-.44,1.53,1.53,0,0,0,.49-1.21A1.64,1.64,0,0,0,140.17,18.66Z"/><path d="M0,0V43H162V0ZM38.3,14.1H40.2L38.3,16.17H37ZM26.66,22a5.27,5.27,0,0,1-.56,2.49,4,4,0,0,1-1.61,1.65,4.82,4.82,0,0,1-2.39.58H19.24v-10h2.94a4.61,4.61,0,0,1,2.34.59,4,4,0,0,1,1.58,1.67,5.3,5.3,0,0,1,.56,2.47Zm14.39,4.72H34.54v-10H41v1.39H36.27V21h4.09v1.37H36.27v3h4.78Zm9.57-2.11a1.92,1.92,0,0,0,1.69.85A2.23,2.23,0,0,0,53.84,25a2.39,2.39,0,0,0,.65-1.52h1.72A3.59,3.59,0,0,1,55,26a4,4,0,0,1-2.73.89,3.88,3.88,0,0,1-2.1-.56,3.7,3.7,0,0,1-1.4-1.6,5.78,5.78,0,0,1-.51-2.41v-.93a5.82,5.82,0,0,1,.5-2.48,3.76,3.76,0,0,1,1.43-1.65,4,4,0,0,1,2.16-.58,3.84,3.84,0,0,1,2.65.89,3.73,3.73,0,0,1,1.17,2.53H54.49a2.46,2.46,0,0,0-.63-1.55,2.07,2.07,0,0,0-1.47-.47,2,2,0,0,0-1.73.82A4.11,4.11,0,0,0,50,21.31v.88A4.37,4.37,0,0,0,50.62,24.66ZM71.86,22a6.11,6.11,0,0,1-.51,2.57,3.82,3.82,0,0,1-1.45,1.7,4.24,4.24,0,0,1-4.32,0,3.87,3.87,0,0,1-1.46-1.68,5.91,5.91,0,0,1-.52-2.52v-.56A6.06,6.06,0,0,1,64.12,19a3.88,3.88,0,0,1,1.46-1.71,4,4,0,0,1,2.16-.59,4,4,0,0,1,2.16.58,3.84,3.84,0,0,1,1.45,1.68,6.05,6.05,0,0,1,.52,2.55ZM87,23.46A3.24,3.24,0,0,1,86,26a4.45,4.45,0,0,1-5.42,0,3.25,3.25,0,0,1-1-2.53V16.81h1.72v6.65A2.11,2.11,0,0,0,81.82,25a2,2,0,0,0,1.49.53q2,0,2-2.1V16.81H87Zm12.36,3.3H97.71l-3.57-10H96l2.5,7.79,2.53-7.79H103Zm18.37,0H115.9l-2-3.83H112v3.83h-1.73v-10h3.5a4.07,4.07,0,0,1,2.66.77,2.74,2.74,0,0,1,.94,2.24,2.8,2.8,0,0,1-.48,1.67,3.06,3.06,0,0,1-1.34,1l2.24,4.14Zm9.22,0h-1.72v-10H127Zm15.79,0h-1.85l-2-3.83H137v3.83h-1.73v-10h3.5a4.07,4.07,0,0,1,2.66.77,2.74,2.74,0,0,1,.94,2.24,2.8,2.8,0,0,1-.48,1.67,3.06,3.06,0,0,1-1.34,1l2.24,4.14Z"/></svg>