<svg id="Calque_1" data-name="Calque 1" xmlns="http://www.w3.org/2000/svg" viewBox="0 0 162 43"><title>Plan de travail 23</title><path d="M18.27,26.39v-10h2.94a4.61,4.61,0,0,1,2.34.59,4,4,0,0,1,1.58,1.67,5.3,5.3,0,0,1,.56,2.47v.5a5.27,5.27,0,0,1-.56,2.49,4,4,0,0,1-1.61,1.65,4.82,4.82,0,0,1-2.39.58ZM20,17.83V25h1.13a2.6,2.6,0,0,0,2.09-.85A3.7,3.7,0,0,0,24,21.7v-.55a3.8,3.8,0,0,0-.7-2.47,2.5,2.5,0,0,0-2-.85Z"/><path d="M39.39,21.94H35.31v3h4.78v1.39H33.58v-10H40v1.39H35.31v2.75h4.09Zm-2.06-8.22h1.89l-1.89,2.07H36Z"/><path d="M55.25,23.15a3.59,3.59,0,0,1-1.18,2.48,4,4,0,0,1-2.73.89,3.88,3.88,0,0,1-2.1-.56,3.7,3.7,0,0,1-1.4-1.6,5.78,5.78,0,0,1-.51-2.41V21a5.82,5.82,0,0,1,.5-2.48,3.76,3.76,0,0,1,1.43-1.65,4,4,0,0,1,2.16-.58,3.84,3.84,0,0,1,2.65.89,3.73,3.73,0,0,1,1.17,2.53H53.52a2.46,2.46,0,0,0-.63-1.55,2.07,2.07,0,0,0-1.47-.47,2,2,0,0,0-1.73.82,4.11,4.11,0,0,0-.62,2.42v.88a4.37,4.37,0,0,0,.58,2.46,1.92,1.92,0,0,0,1.69.85,2.23,2.23,0,0,0,1.53-.46,2.39,2.39,0,0,0,.65-1.52Z"/><path d="M70.9,21.67a6.11,6.11,0,0,1-.51,2.57,3.82,3.82,0,0,1-1.45,1.7,4.24,4.24,0,0,1-4.32,0,3.87,3.87,0,0,1-1.46-1.68,5.91,5.91,0,0,1-.52-2.52v-.56a6.06,6.06,0,0,1,.52-2.57,3.88,3.88,0,0,1,1.46-1.71,4,4,0,0,1,2.16-.59,4,4,0,0,1,2.16.58,3.84,3.84,0,0,1,1.45,1.68,6.05,6.05,0,0,1,.52,2.55Zm-1.73-.52a4.34,4.34,0,0,0-.63-2.54,2.21,2.21,0,0,0-3.53,0,4.27,4.27,0,0,0-.65,2.48v.57A4.31,4.31,0,0,0,65,24.21a2.06,2.06,0,0,0,1.77.9,2,2,0,0,0,1.77-.87,4.41,4.41,0,0,0,.62-2.56Z"/><path d="M86.06,16.43v6.65a3.24,3.24,0,0,1-1,2.51,4.45,4.45,0,0,1-5.42,0,3.25,3.25,0,0,1-1-2.53V16.43h1.72v6.65a2.11,2.11,0,0,0,.51,1.52,2,2,0,0,0,1.49.53q2,0,2-2.1V16.43Z"/><path d="M97.57,24.22l2.53-7.79H102l-3.58,10H96.74l-3.57-10h1.89Z"/><path d="M112.94,22.56H111v3.83h-1.73v-10h3.5a4.07,4.07,0,0,1,2.66.77,2.74,2.74,0,0,1,.94,2.24,2.8,2.8,0,0,1-.48,1.67,3.06,3.06,0,0,1-1.34,1l2.24,4.14v.09h-1.85ZM111,21.16h1.78a2,2,0,0,0,1.37-.44,1.53,1.53,0,0,0,.49-1.21,1.64,1.64,0,0,0-.45-1.24,1.93,1.93,0,0,0-1.36-.45H111Z"/><path d="M126,26.39h-1.72v-10H126Z"/><path d="M137.95,22.56H136v3.83h-1.73v-10h3.5a4.07,4.07,0,0,1,2.66.77,2.74,2.74,0,0,1,.94,2.24,2.8,2.8,0,0,1-.48,1.67,3.06,3.06,0,0,1-1.34,1l2.24,4.14v.09h-1.85ZM136,21.16h1.78a2,2,0,0,0,1.37-.44,1.53,1.53,0,0,0,.49-1.21,1.64,1.64,0,0,0-.45-1.24,1.93,1.93,0,0,0-1.36-.45H136Z"/><path d="M161,42.62H-1v-43H161Zm-161-1H160V.62H0Z"/></svg>