<svg id="Calque_1" data-name="Calque 1" xmlns="http://www.w3.org/2000/svg" viewBox="0 0 247 71"><defs><style>.cls-1{fill:#b6a083;}</style></defs><title>Plan de travail 31</title><path d="M25.82,55.79H20.14s0-.21.07-.21h1.55c.07,0,.12,0,.12-.05l3.7-11.71s0-.07-.09-.07H23.94s0-.21.07-.21h5.2a4.53,4.53,0,0,1,4.49,4.72C33.7,52.21,29.5,55.79,25.82,55.79Zm3.32-12h-1a.12.12,0,0,0-.12.07L24.3,55.53s0,.05.09.05h1.43a4.09,4.09,0,0,0,3.77-2A22,22,0,0,0,31.78,46C31.78,44.72,31.17,43.75,29.14,43.75Z"/><path d="M38.44,52h-.6a9.41,9.41,0,0,0-.45,2.35c0,.83.24,1.36,1.09,1.36a3.26,3.26,0,0,0,2.68-1.36l.14.14a3.42,3.42,0,0,1-2.8,1.43,2.69,2.69,0,0,1-2.69-2.88,4.78,4.78,0,0,1,4.39-4.78c1.45,0,2.18.78,2.18,1.54C42.36,51.18,40.64,52,38.44,52Zm1.69-3.52c-1.28,0-1.73,1.47-2.25,3.32h.38c2.14,0,2.57-1.26,2.57-2.4C40.84,48.74,40.6,48.5,40.14,48.5ZM39.08,47c-.05,0,0-.21,0-.21,3.07-.62,3.57-3.35,4.56-3.35a.62.62,0,0,1,.66.66C44.31,44.89,42.59,46.37,39.08,47Z"/><path d="M50.15,50.93a.75.75,0,0,1-.79-.78c0-.6.29-.66.29-1.09s-.31-.57-.83-.57a1.63,1.63,0,0,0-1.49,1,17.65,17.65,0,0,0-1.3,4.9c0,.85.26,1.33,1.09,1.33A3.43,3.43,0,0,0,50,54.13l.19.1a3.78,3.78,0,0,1-3,1.71A2.71,2.71,0,0,1,44.45,53c0-2.47,2-4.77,4.34-4.77A2.23,2.23,0,0,1,51,50.05.83.83,0,0,1,50.15,50.93Z"/><path d="M55.8,55.94A2.71,2.71,0,0,1,53.08,53a4.79,4.79,0,0,1,4.4-4.77,2.71,2.71,0,0,1,2.69,2.92A4.77,4.77,0,0,1,55.8,55.94Zm1.71-7.44a1.73,1.73,0,0,0-1.59,1.07,19.22,19.22,0,0,0-1.24,4.8c0,.83.22,1.36,1.07,1.36a1.77,1.77,0,0,0,1.61-1.07,18.69,18.69,0,0,0,1.24-4.8C58.59,49,58.35,48.5,57.51,48.5Z"/><path d="M69.07,54.84c-.1.33,0,.54.36.54.54,0,1-.33,1.54-1.28l.21.09a2.9,2.9,0,0,1-2.37,1.76c-1,0-1.74-.83-1.07-2.71-1.07,1.92-2.28,2.71-3.26,2.71A1.42,1.42,0,0,1,63,54.35c0-1.61,1.61-4,1.61-5,0-.38-.12-.52-.4-.52s-.76.35-1.12,1.12l-.21-.09a2.38,2.38,0,0,1,2-1.55,1.18,1.18,0,0,1,1.3,1.28c0,1.4-1.49,3.25-1.49,4.8a.67.67,0,0,0,.69.73c.74,0,1.4-.64,2.56-2.62l1.24-4,1.87-.09Z"/><path d="M76.08,55.94c-1.43,0-2-.83-2-2.14s1.09-2.94,1.09-4.51c0-.36-.09-.48-.45-.48s-.78.4-1.12,1.12l-.19-.09a2.36,2.36,0,0,1,2.05-1.57c.9,0,1.33.52,1.33,1.43,0,1.64-1.16,3.44-1.16,4.63,0,.9.28,1.17.9,1.17,1.28,0,3.06-1.64,3.06-3.71,0-1.28-.29-1.54-.29-2.45,0-.57.29-1.07.79-1.07.73,0,1,.62,1,1.31C81.07,52.73,78,55.94,76.08,55.94Z"/><path d="M89.47,50.93c-.55,0-.88-.33-.88-.71s.22-.45.22-.73-.1-.47-.47-.47-1,.71-2.09,3l-1.17,3.73H83.25l2-6.17c.16-.48,0-.81-.36-.81s-.76.33-1.12,1.12l-.19-.09a2.39,2.39,0,0,1,2.06-1.57c1,0,1.62.81,1,2.61.85-1.83,1.59-2.61,2.42-2.61a1.35,1.35,0,0,1,1.38,1.42C90.42,50.31,90,50.93,89.47,50.93Z"/><path d="M93.8,55.94a1.33,1.33,0,0,1-1.49-1.33c0-1.47,1.69-3.8,1.69-5.25,0-.43-.12-.55-.43-.55s-.79.38-1.14,1.12l-.21-.09a2.42,2.42,0,0,1,2.12-1.57,1.22,1.22,0,0,1,1.33,1.3c0,1.73-1.73,4-1.73,5.15,0,.4.16.66.52.66.54,0,1-.33,1.57-1.28l.19.09A3,3,0,0,1,93.8,55.94ZM95.66,46a1,1,0,1,1,0-2,1,1,0,0,1,0,2Z"/><path d="M104.5,50.93c-.55,0-.88-.33-.88-.71s.22-.45.22-.73-.1-.47-.47-.47-1,.71-2.09,3l-1.17,3.73H98.29l2-6.17c.16-.48,0-.81-.36-.81s-.76.33-1.12,1.12l-.19-.09a2.39,2.39,0,0,1,2.06-1.57c1,0,1.62.81,1,2.61.85-1.83,1.59-2.61,2.42-2.61a1.35,1.35,0,0,1,1.38,1.42C105.45,50.31,105,50.93,104.5,50.93Z"/><path d="M113.71,54.77c-.12.4,0,.6.33.6.55,0,1.09-.41,1.55-1.28l.22.09a3,3,0,0,1-2.47,1.76c-1.09,0-1.59-.76-1.12-2.19l3.25-10.38c0-.05,0-.07-.07-.07l-1,0s0-.21.05-.21l2.85-.05s.07,0,0,0Z"/><path d="M120.84,52h-.6a9.41,9.41,0,0,0-.45,2.35c0,.83.24,1.36,1.09,1.36a3.26,3.26,0,0,0,2.68-1.36l.14.14a3.42,3.42,0,0,1-2.8,1.43,2.69,2.69,0,0,1-2.69-2.88,4.78,4.78,0,0,1,4.39-4.78c1.45,0,2.18.78,2.18,1.54C124.76,51.18,123,52,120.84,52Zm1.69-3.52c-1.28,0-1.73,1.47-2.25,3.32h.38c2.14,0,2.57-1.26,2.57-2.4C123.24,48.74,123,48.5,122.53,48.5Z"/><path d="M131.75,50.59a.68.68,0,0,1-.76-.71c0-.4.31-.5.31-.83s-.24-.57-.74-.57a1.14,1.14,0,0,0-1.26,1.24c0,1.47,2.35,1.92,2.35,3.94,0,1.12-1,2.28-2.9,2.28-1.45,0-2.37-.92-2.37-1.74a1,1,0,0,1,.9-1.07.77.77,0,0,1,.79.76c0,.79-.59.6-.59,1.09s.33.76,1.24.76a1.25,1.25,0,0,0,1.42-1.38c0-1.69-2.18-1.87-2.18-3.7a2.65,2.65,0,0,1,2.64-2.38c1.05,0,2,.59,2,1.45A.79.79,0,0,1,131.75,50.59Z"/><path d="M145.17,50.93a.75.75,0,0,1-.79-.78c0-.6.29-.66.29-1.09s-.31-.57-.83-.57a1.63,1.63,0,0,0-1.49,1,17.65,17.65,0,0,0-1.3,4.9c0,.85.26,1.33,1.09,1.33A3.43,3.43,0,0,0,145,54.13l.19.1a3.78,3.78,0,0,1-3,1.71,2.71,2.71,0,0,1-2.71-2.9c0-2.47,2-4.77,4.34-4.77a2.23,2.23,0,0,1,2.26,1.78A.83.83,0,0,1,145.17,50.93Z"/><path d="M150.81,55.94A2.71,2.71,0,0,1,148.1,53a4.79,4.79,0,0,1,4.4-4.77,2.71,2.71,0,0,1,2.69,2.92A4.77,4.77,0,0,1,150.81,55.94Zm1.71-7.44a1.73,1.73,0,0,0-1.59,1.07,19.22,19.22,0,0,0-1.24,4.8c0,.83.22,1.36,1.07,1.36a1.77,1.77,0,0,0,1.61-1.07,18.69,18.69,0,0,0,1.24-4.8C153.61,49,153.37,48.5,152.52,48.5Z"/><path d="M159.52,54.77c-.12.4,0,.6.33.6.55,0,1.09-.41,1.55-1.28l.22.09a3,3,0,0,1-2.47,1.76c-1.09,0-1.59-.76-1.12-2.19l3.25-10.38c0-.05,0-.07-.07-.07l-1,0s0-.21.05-.21l2.85-.05s.07,0,0,0Z"/><path d="M165.8,54.77c-.12.4,0,.6.33.6.55,0,1.09-.41,1.55-1.28l.22.09a3,3,0,0,1-2.47,1.76c-1.09,0-1.59-.76-1.12-2.19l3.25-10.38c0-.05,0-.07-.07-.07l-1,0s0-.21.05-.21l2.85-.05s.07,0,0,0Z"/><path d="M172.93,52h-.6a9.41,9.41,0,0,0-.45,2.35c0,.83.24,1.36,1.09,1.36a3.26,3.26,0,0,0,2.68-1.36l.14.14a3.42,3.42,0,0,1-2.8,1.43,2.69,2.69,0,0,1-2.69-2.88,4.78,4.78,0,0,1,4.39-4.78c1.45,0,2.18.78,2.18,1.54C176.85,51.18,175.13,52,172.93,52Zm1.69-3.52c-1.28,0-1.73,1.47-2.25,3.32h.38c2.14,0,2.57-1.26,2.57-2.4C175.33,48.74,175.09,48.5,174.63,48.5Z"/><path d="M184.67,50.93a.75.75,0,0,1-.79-.78c0-.6.29-.66.29-1.09s-.31-.57-.83-.57a1.63,1.63,0,0,0-1.49,1,17.65,17.65,0,0,0-1.3,4.9c0,.85.26,1.33,1.09,1.33a3.43,3.43,0,0,0,2.83-1.61l.19.1a3.78,3.78,0,0,1-3,1.71A2.71,2.71,0,0,1,179,53c0-2.47,2-4.77,4.34-4.77a2.23,2.23,0,0,1,2.26,1.78A.83.83,0,0,1,184.67,50.93Z"/><path d="M192.63,48.58h-1.3l-2,6.25c-.1.31,0,.54.33.54.54,0,1-.33,1.59-1.28l.19.09a2.9,2.9,0,0,1-2.42,1.76c-1.07,0-1.59-.83-1.16-2.23l1.61-5.13h-1.24s0-.22.07-.22h1.24l.79-2.52,1.85-.09-.81,2.61h1.28S192.69,48.58,192.63,48.58Z"/><path d="M195.74,55.94a1.33,1.33,0,0,1-1.49-1.33c0-1.47,1.69-3.8,1.69-5.25,0-.43-.12-.55-.43-.55s-.79.38-1.14,1.12l-.21-.09a2.42,2.42,0,0,1,2.12-1.57,1.22,1.22,0,0,1,1.33,1.3c0,1.73-1.73,4-1.73,5.15,0,.4.16.66.52.66.54,0,1-.33,1.57-1.28l.19.09A3,3,0,0,1,195.74,55.94ZM197.61,46a1,1,0,1,1,0-2,1,1,0,0,1,0,2Z"/><path d="M203,55.94a2.71,2.71,0,0,1-2.71-2.9,4.79,4.79,0,0,1,4.4-4.77,2.71,2.71,0,0,1,2.69,2.92A4.77,4.77,0,0,1,203,55.94Zm1.71-7.44a1.73,1.73,0,0,0-1.59,1.07,19.22,19.22,0,0,0-1.24,4.8c0,.83.22,1.36,1.07,1.36a1.77,1.77,0,0,0,1.61-1.07,18.69,18.69,0,0,0,1.24-4.8C205.79,49,205.55,48.5,204.7,48.5Z"/><path d="M216.19,55.94a1.34,1.34,0,0,1-1.49-1.28c0-1.4,1.47-3.23,1.47-4.8a.67.67,0,0,0-.67-.73c-.74,0-1.42.64-2.56,2.64l-1.26,4h-1.83l2-6.17c.16-.48,0-.81-.36-.81s-.76.29-1.14,1.12l-.21-.09a2.41,2.41,0,0,1,2.07-1.57c1,0,1.66.85,1,2.71,1.09-1.9,2.35-2.71,3.3-2.71a1.38,1.38,0,0,1,1.42,1.57c0,1.64-1.55,3.83-1.55,4.87,0,.4.16.66.54.66s1-.35,1.55-1.28l.17.09A2.93,2.93,0,0,1,216.19,55.94Z"/><path d="M225.54,50.59a.68.68,0,0,1-.76-.71c0-.4.31-.5.31-.83s-.24-.57-.74-.57a1.14,1.14,0,0,0-1.26,1.24c0,1.47,2.35,1.92,2.35,3.94,0,1.12-1,2.28-2.9,2.28-1.45,0-2.37-.92-2.37-1.74a1,1,0,0,1,.9-1.07.77.77,0,0,1,.79.76c0,.79-.59.6-.59,1.09s.33.76,1.24.76a1.25,1.25,0,0,0,1.42-1.38c0-1.69-2.18-1.87-2.18-3.7a2.65,2.65,0,0,1,2.64-2.38c1.05,0,2,.59,2,1.45A.79.79,0,0,1,225.54,50.59Z"/><path class="cls-1" d="M124,27V0h-1V27H0V71H247V27ZM246,70H1V28H246Z"/></svg>